G04 #@! TF.FileFunction,Copper,L2,Bot,Signal*
%FSLAX46Y46*%
G04 Gerber Fmt 4.6, Leading zero omitted, Abs format (unit mm)*
G04 Created by KiCad (PCBNEW 4.0.4+e1-6308~48~ubuntu16.04.1-stable) date Tue Nov 29 21:46:03 2016*
%MOMM*%
%LPD*%
G01*
G04 APERTURE LIST*
%ADD10C,0.100000*%
%ADD11R,2.032000X1.727200*%
%ADD12O,2.032000X1.727200*%
%ADD13C,1.900000*%
%ADD14R,1.900000X2.000000*%
%ADD15C,0.600000*%
%ADD16C,0.300000*%
G04 APERTURE END LIST*
D10*
D11*
X78925000Y-121800000D03*
D12*
X78925000Y-119260000D03*
X78925000Y-116720000D03*
X78925000Y-114180000D03*
D13*
X91110000Y-84760000D03*
X91110000Y-87300000D03*
X91110000Y-89840000D03*
X91110000Y-92380000D03*
X91110000Y-94920000D03*
X91110000Y-97460000D03*
X91110000Y-100000000D03*
X91110000Y-102540000D03*
X91110000Y-105080000D03*
X91110000Y-107620000D03*
X91110000Y-110160000D03*
X91110000Y-112700000D03*
X108890000Y-84760000D03*
X108890000Y-87300000D03*
X108890000Y-89840000D03*
X108890000Y-92380000D03*
X108890000Y-94920000D03*
X108890000Y-97460000D03*
X108890000Y-100000000D03*
X108890000Y-102540000D03*
X108890000Y-105080000D03*
X108890000Y-107620000D03*
X108890000Y-110160000D03*
X108890000Y-112700000D03*
D14*
X87460000Y-70000000D03*
D13*
X90000000Y-70000000D03*
D14*
X107460000Y-70000000D03*
D13*
X110000000Y-70000000D03*
D11*
X125625000Y-119105000D03*
D12*
X125625000Y-116565000D03*
X125625000Y-114025000D03*
X125625000Y-111485000D03*
D11*
X75755000Y-100125000D03*
D12*
X75755000Y-102665000D03*
X75755000Y-105205000D03*
D11*
X125500000Y-96315000D03*
D12*
X125500000Y-98855000D03*
X125500000Y-101395000D03*
X125500000Y-103935000D03*
X125500000Y-106475000D03*
D15*
X112800000Y-91075000D03*
X93450000Y-69925000D03*
X114150000Y-93625000D03*
X114250000Y-70075000D03*
X116125000Y-106474999D03*
X84550000Y-113500000D03*
X112775000Y-98875000D03*
X83925000Y-119225000D03*
X80100000Y-87850000D03*
X78925000Y-105200000D03*
D16*
X87460000Y-70000000D02*
X86210000Y-70000000D01*
X75755000Y-80455000D02*
X75755000Y-98961400D01*
X86210000Y-70000000D02*
X75755000Y-80455000D01*
X75755000Y-98961400D02*
X75755000Y-100125000D01*
X87050000Y-87300000D02*
X83874998Y-90475002D01*
X75755000Y-100125000D02*
X75755000Y-97495000D01*
X75755000Y-97495000D02*
X76855000Y-97495000D01*
X76855000Y-97495000D02*
X87050000Y-87300000D01*
X87050000Y-87300000D02*
X91110000Y-87300000D01*
X75755000Y-100125000D02*
X75602600Y-100125000D01*
X75602600Y-100125000D02*
X74338990Y-101388610D01*
X74338990Y-101388610D02*
X74338990Y-117366390D01*
X74338990Y-117366390D02*
X78772600Y-121800000D01*
X78772600Y-121800000D02*
X78925000Y-121800000D01*
X78925000Y-121800000D02*
X124093600Y-121800000D01*
X124093600Y-121800000D02*
X125625000Y-120268600D01*
X125625000Y-120268600D02*
X125625000Y-119105000D01*
X125500000Y-96315000D02*
X125500000Y-88090000D01*
X125500000Y-88090000D02*
X107460000Y-70050000D01*
X107460000Y-70050000D02*
X107460000Y-70000000D01*
X75755000Y-100125000D02*
X75755000Y-98809000D01*
X87460000Y-70000000D02*
X87460000Y-70050000D01*
X87460000Y-70050000D02*
X88760001Y-71350001D01*
X88760001Y-71350001D02*
X104859999Y-71350001D01*
X104859999Y-71350001D02*
X106210000Y-70000000D01*
X106210000Y-70000000D02*
X107460000Y-70000000D01*
X112800000Y-91075000D02*
X108955000Y-94920000D01*
X108955000Y-94920000D02*
X108890000Y-94920000D01*
X90000000Y-70000000D02*
X93375000Y-70000000D01*
X93375000Y-70000000D02*
X93450000Y-69925000D01*
X114150000Y-93625000D02*
X112725000Y-93625000D01*
X112725000Y-93625000D02*
X108890000Y-97460000D01*
X110000000Y-70000000D02*
X114175000Y-70000000D01*
X114175000Y-70000000D02*
X114250000Y-70075000D01*
X125500000Y-106475000D02*
X124183999Y-106474999D01*
X124183999Y-106474999D02*
X116549264Y-106474999D01*
X116549264Y-106474999D02*
X116125000Y-106474999D01*
X84550000Y-113500000D02*
X90310000Y-113500000D01*
X90310000Y-113500000D02*
X91110000Y-112700000D01*
X75755000Y-102665000D02*
X88445000Y-102665000D01*
X88445000Y-102665000D02*
X91110000Y-100000000D01*
X112775000Y-98875000D02*
X109110000Y-102540000D01*
X109110000Y-102540000D02*
X108890000Y-102540000D01*
X78925000Y-119260000D02*
X83890000Y-119260000D01*
X83890000Y-119260000D02*
X83925000Y-119225000D01*
X125500000Y-101395000D02*
X112575000Y-101395000D01*
X112575000Y-101395000D02*
X108890000Y-105080000D01*
X125500000Y-103935000D02*
X112575000Y-103935000D01*
X112575000Y-103935000D02*
X108890000Y-107620000D01*
X125625000Y-111485000D02*
X110215000Y-111485000D01*
X110215000Y-111485000D02*
X108890000Y-110160000D01*
X108890000Y-112700000D02*
X110215000Y-114025000D01*
X110215000Y-114025000D02*
X125625000Y-114025000D01*
X125500000Y-98855000D02*
X124055000Y-98855000D01*
X119475000Y-90675000D02*
X110600000Y-81800000D01*
X124055000Y-98855000D02*
X119475000Y-94275000D01*
X119475000Y-94275000D02*
X119475000Y-90675000D01*
X110600000Y-81800000D02*
X94070000Y-81800000D01*
X94070000Y-81800000D02*
X92059999Y-83810001D01*
X92059999Y-83810001D02*
X91110000Y-84760000D01*
X80399999Y-87550001D02*
X80100000Y-87850000D01*
X83190000Y-84760000D02*
X80399999Y-87550001D01*
X91110000Y-84760000D02*
X83190000Y-84760000D01*
X75755000Y-105205000D02*
X75907400Y-105205000D01*
X75907400Y-105205000D02*
X75912400Y-105200000D01*
X75912400Y-105200000D02*
X78925000Y-105200000D01*
X125625000Y-116565000D02*
X126941000Y-116565000D01*
X126941000Y-116565000D02*
X127041010Y-116464990D01*
X127041010Y-116464990D02*
X127041010Y-100243610D01*
X127041010Y-100243610D02*
X125652400Y-98855000D01*
X125652400Y-98855000D02*
X125500000Y-98855000D01*
X75755000Y-105205000D02*
X75755000Y-111162400D01*
X75755000Y-111162400D02*
X78772600Y-114180000D01*
X78772600Y-114180000D02*
X78925000Y-114180000D01*
X90400000Y-84050000D02*
X91110000Y-84760000D01*
M02*
