G04 #@! TF.FileFunction,Copper,L2,Bot,Signal*
%FSLAX46Y46*%
G04 Gerber Fmt 4.6, Leading zero omitted, Abs format (unit mm)*
G04 Created by KiCad (PCBNEW 4.0.2+e4-6225~38~ubuntu16.04.1-stable) date Fri 08 Jul 2016 09:50:34 SAST*
%MOMM*%
G01*
G04 APERTURE LIST*
%ADD10C,0.100000*%
%ADD11C,1.900000*%
%ADD12R,2.032000X1.727200*%
%ADD13O,2.032000X1.727200*%
%ADD14R,1.900000X2.000000*%
%ADD15R,1.727200X2.032000*%
%ADD16O,1.727200X2.032000*%
%ADD17C,0.600000*%
%ADD18C,0.300000*%
%ADD19C,0.350000*%
%ADD20C,0.250000*%
%ADD21C,0.450000*%
G04 APERTURE END LIST*
D10*
D11*
X100330000Y-90170000D03*
X100330000Y-87630000D03*
X100330000Y-85090000D03*
X100330000Y-82550000D03*
X100330000Y-80010000D03*
X100330000Y-77470000D03*
X100330000Y-74930000D03*
X100330000Y-72390000D03*
X100330000Y-69850000D03*
X100330000Y-67310000D03*
X100330000Y-64770000D03*
X100330000Y-62230000D03*
X82550000Y-90170000D03*
X82550000Y-87630000D03*
X82550000Y-85090000D03*
X82550000Y-82550000D03*
X82550000Y-80010000D03*
X82550000Y-77470000D03*
X82550000Y-74930000D03*
X82550000Y-72390000D03*
X82550000Y-69850000D03*
X82550000Y-67310000D03*
X82550000Y-64770000D03*
X82550000Y-62230000D03*
D12*
X71820000Y-71690000D03*
D13*
X71820000Y-69150000D03*
X71820000Y-66610000D03*
X71820000Y-64070000D03*
X71820000Y-61530000D03*
D14*
X90410000Y-105780000D03*
D11*
X92950000Y-105780000D03*
D14*
X100230000Y-106090000D03*
D11*
X102770000Y-106090000D03*
D15*
X73260000Y-101240000D03*
D16*
X70720000Y-101240000D03*
X68180000Y-101240000D03*
D12*
X71480000Y-89790000D03*
D13*
X71480000Y-87250000D03*
X71480000Y-84710000D03*
X71480000Y-82170000D03*
D12*
X71942457Y-47951728D03*
D13*
X71942457Y-50491728D03*
X71942457Y-53031728D03*
X71942457Y-55571728D03*
D17*
X76140000Y-89660000D03*
X76160000Y-71780000D03*
X76310000Y-50500000D03*
X76310000Y-69230000D03*
D18*
X71820000Y-71690000D02*
X76070000Y-71690000D01*
D19*
X76010000Y-89790000D02*
X71480000Y-89790000D01*
D18*
X76140000Y-89660000D02*
X76010000Y-89790000D01*
X76070000Y-71690000D02*
X76160000Y-71780000D01*
X71820000Y-71690000D02*
X73086000Y-71690000D01*
X71327600Y-89790000D02*
X71480000Y-89790000D01*
X73086000Y-71690000D02*
X73240000Y-71844000D01*
X73240000Y-71844000D02*
X73240000Y-84946128D01*
D19*
X70138990Y-88601390D02*
X71327600Y-89790000D01*
D18*
X73240000Y-84946128D02*
X72124738Y-86061390D01*
X72124738Y-86061390D02*
X70835262Y-86061390D01*
X70835262Y-86061390D02*
X70138990Y-86757662D01*
X70138990Y-86757662D02*
X70138990Y-88601390D01*
D19*
X73260000Y-101240000D02*
X73260000Y-91417600D01*
X73260000Y-91417600D02*
X71632400Y-89790000D01*
D18*
X71632400Y-89790000D02*
X71480000Y-89790000D01*
D19*
X109200000Y-93540000D02*
X103290000Y-87630000D01*
X103290000Y-87630000D02*
X100330000Y-87630000D01*
X109200000Y-106430000D02*
X109200000Y-93540000D01*
D18*
X106400000Y-109230000D02*
X109200000Y-106430000D01*
D19*
X102540000Y-109230000D02*
X106400000Y-109230000D01*
D18*
X100230000Y-106920000D02*
X102540000Y-109230000D01*
X100230000Y-106090000D02*
X100230000Y-106920000D01*
X100230000Y-106280000D02*
X100230000Y-106090000D01*
X100230000Y-106090000D02*
X99030000Y-106090000D01*
X99030000Y-106090000D02*
X96580000Y-108540000D01*
X96580000Y-108540000D02*
X93120000Y-108540000D01*
X93120000Y-108540000D02*
X90410000Y-105830000D01*
X90410000Y-105830000D02*
X90410000Y-105780000D01*
X90410000Y-105780000D02*
X77647600Y-105780000D01*
X77647600Y-105780000D02*
X73260000Y-101392400D01*
X73260000Y-101392400D02*
X73260000Y-101240000D01*
X71942457Y-47951728D02*
X79841728Y-47951728D01*
X79841728Y-47951728D02*
X97410000Y-65520000D01*
D19*
X97410000Y-65520000D02*
X97410000Y-84710000D01*
X97410000Y-84710000D02*
X99380001Y-86680001D01*
X99380001Y-86680001D02*
X100330000Y-87630000D01*
X92950000Y-105780000D02*
X92950000Y-90410000D01*
X92950000Y-90410000D02*
X82550000Y-80010000D01*
D20*
X102770000Y-106090000D02*
X102774712Y-106085288D01*
D19*
X102774712Y-106085288D02*
X102774712Y-97694712D01*
X102774712Y-97694712D02*
X83499999Y-78419999D01*
X83499999Y-78419999D02*
X82550000Y-77470000D01*
X70660000Y-43250000D02*
X81350000Y-43250000D01*
X81350000Y-43250000D02*
X100330000Y-62230000D01*
X68410000Y-45500000D02*
X70660000Y-43250000D01*
X68410000Y-58272400D02*
X68410000Y-45500000D01*
D20*
X71820000Y-61530000D02*
X71667600Y-61530000D01*
D19*
X71667600Y-61530000D02*
X68410000Y-58272400D01*
D20*
X70720000Y-101240000D02*
X70720000Y-102506000D01*
D19*
X111060000Y-85660000D02*
X101279999Y-75879999D01*
D18*
X70720000Y-102506000D02*
X78844000Y-110630000D01*
X78844000Y-110630000D02*
X106980000Y-110630000D01*
D19*
X106980000Y-110630000D02*
X111060000Y-106550000D01*
X101279999Y-75879999D02*
X100330000Y-74930000D01*
X111060000Y-106550000D02*
X111060000Y-85660000D01*
D20*
X70720000Y-101240000D02*
X70720000Y-101087600D01*
D19*
X71480000Y-87250000D02*
X73180000Y-87250000D01*
X73180000Y-87250000D02*
X78060000Y-82370000D01*
X78060000Y-82370000D02*
X78060000Y-76880000D01*
X78060000Y-76880000D02*
X81600001Y-73339999D01*
X81600001Y-73339999D02*
X82550000Y-72390000D01*
X71820000Y-66610000D02*
X79310000Y-66610000D01*
X79310000Y-66610000D02*
X82550000Y-69850000D01*
X81600001Y-66360001D02*
X82550000Y-67310000D01*
X73086000Y-65183600D02*
X80423600Y-65183600D01*
X71972400Y-64070000D02*
X73086000Y-65183600D01*
D20*
X71820000Y-64070000D02*
X71972400Y-64070000D01*
D19*
X80423600Y-65183600D02*
X81600001Y-66360001D01*
X71942457Y-55571728D02*
X73351728Y-55571728D01*
X73351728Y-55571728D02*
X82550000Y-64770000D01*
X71942457Y-53031728D02*
X73351728Y-53031728D01*
X73351728Y-53031728D02*
X82550000Y-62230000D01*
X71820000Y-69150000D02*
X76230000Y-69150000D01*
X76230000Y-69150000D02*
X71820000Y-69150000D01*
X71820000Y-69150000D02*
X71900000Y-69230000D01*
X71900000Y-69230000D02*
X76310000Y-69230000D01*
X71820000Y-69150000D02*
X76250000Y-69260000D01*
X76311728Y-50491728D02*
X71942457Y-50491728D01*
D20*
X76310000Y-50500000D02*
X76311728Y-50491728D01*
X76250000Y-69260000D02*
X76310000Y-69230000D01*
D19*
X69788996Y-52492789D02*
X69788996Y-56098996D01*
X70601447Y-51680338D02*
X69788996Y-52492789D01*
X69788996Y-56098996D02*
X74110000Y-60420000D01*
X74110000Y-60420000D02*
X74110000Y-62510000D01*
D20*
X72535449Y-62881390D02*
X72485449Y-62831390D01*
D19*
X74110000Y-62510000D02*
X73738610Y-62881390D01*
X73738610Y-62881390D02*
X72535449Y-62881390D01*
D20*
X72485449Y-62831390D02*
X71154551Y-62831390D01*
X70428990Y-67123049D02*
X70478990Y-67173049D01*
X71154551Y-62831390D02*
X70428990Y-63556951D01*
X70428990Y-63556951D02*
X70428990Y-64583049D01*
X70428990Y-64583049D02*
X70478990Y-64633049D01*
D19*
X70478990Y-64633049D02*
X70478990Y-66046951D01*
D20*
X70478990Y-66046951D02*
X70428990Y-66096951D01*
X70428990Y-66096951D02*
X70428990Y-67123049D01*
D19*
X70478990Y-67173049D02*
X70478990Y-67961390D01*
X70478990Y-67961390D02*
X71667600Y-69150000D01*
D20*
X71942457Y-50491728D02*
X73904179Y-50491728D01*
D19*
X73904179Y-50491728D02*
X95910000Y-72497549D01*
X95910000Y-72497549D02*
X95910000Y-85750000D01*
X95910000Y-85750000D02*
X99380001Y-89220001D01*
X99380001Y-89220001D02*
X100330000Y-90170000D01*
D20*
X71942457Y-50491728D02*
X71790057Y-50491728D01*
D19*
X71790057Y-50491728D02*
X70601447Y-51680338D01*
D20*
X71667600Y-69150000D02*
X71820000Y-69150000D01*
D19*
X71667600Y-69150000D02*
X68040000Y-72777600D01*
X68040000Y-72777600D02*
X68040000Y-77616400D01*
X68040000Y-77616400D02*
X71480000Y-81056400D01*
X71480000Y-81056400D02*
X71480000Y-82170000D01*
D21*
X68180000Y-101240000D02*
X68180000Y-85317600D01*
X68180000Y-85317600D02*
X71327600Y-82170000D01*
D20*
X71327600Y-82170000D02*
X71480000Y-82170000D01*
M02*
