G04 #@! TF.FileFunction,Soldermask,Bot*
%FSLAX46Y46*%
G04 Gerber Fmt 4.6, Leading zero omitted, Abs format (unit mm)*
G04 Created by KiCad (PCBNEW 4.0.4+e1-6308~48~ubuntu16.04.1-stable) date Tue Nov 29 21:46:03 2016*
%MOMM*%
%LPD*%
G01*
G04 APERTURE LIST*
%ADD10C,0.100000*%
%ADD11R,2.432000X2.127200*%
%ADD12O,2.432000X2.127200*%
%ADD13C,2.300000*%
%ADD14R,2.300000X2.400000*%
G04 APERTURE END LIST*
D10*
D11*
X78925000Y-121800000D03*
D12*
X78925000Y-119260000D03*
X78925000Y-116720000D03*
X78925000Y-114180000D03*
D13*
X91110000Y-84760000D03*
X91110000Y-87300000D03*
X91110000Y-89840000D03*
X91110000Y-92380000D03*
X91110000Y-94920000D03*
X91110000Y-97460000D03*
X91110000Y-100000000D03*
X91110000Y-102540000D03*
X91110000Y-105080000D03*
X91110000Y-107620000D03*
X91110000Y-110160000D03*
X91110000Y-112700000D03*
X108890000Y-84760000D03*
X108890000Y-87300000D03*
X108890000Y-89840000D03*
X108890000Y-92380000D03*
X108890000Y-94920000D03*
X108890000Y-97460000D03*
X108890000Y-100000000D03*
X108890000Y-102540000D03*
X108890000Y-105080000D03*
X108890000Y-107620000D03*
X108890000Y-110160000D03*
X108890000Y-112700000D03*
D14*
X87460000Y-70000000D03*
D13*
X90000000Y-70000000D03*
D14*
X107460000Y-70000000D03*
D13*
X110000000Y-70000000D03*
D11*
X125625000Y-119105000D03*
D12*
X125625000Y-116565000D03*
X125625000Y-114025000D03*
X125625000Y-111485000D03*
D11*
X75755000Y-100125000D03*
D12*
X75755000Y-102665000D03*
X75755000Y-105205000D03*
D11*
X125500000Y-96315000D03*
D12*
X125500000Y-98855000D03*
X125500000Y-101395000D03*
X125500000Y-103935000D03*
X125500000Y-106475000D03*
M02*
