G04 #@! TF.FileFunction,Legend,Top*
%FSLAX46Y46*%
G04 Gerber Fmt 4.6, Leading zero omitted, Abs format (unit mm)*
G04 Created by KiCad (PCBNEW 4.0.4+e1-6308~48~ubuntu16.04.1-stable) date Tue Nov 29 21:46:03 2016*
%MOMM*%
%LPD*%
G01*
G04 APERTURE LIST*
%ADD10C,0.100000*%
%ADD11C,0.150000*%
G04 APERTURE END LIST*
D10*
D11*
X80195000Y-120530000D02*
X80195000Y-112910000D01*
X77655000Y-120530000D02*
X77655000Y-112910000D01*
X77375000Y-123350000D02*
X77375000Y-121800000D01*
X80195000Y-112910000D02*
X77655000Y-112910000D01*
X77655000Y-120530000D02*
X80195000Y-120530000D01*
X80475000Y-121800000D02*
X80475000Y-123350000D01*
X80475000Y-123350000D02*
X77375000Y-123350000D01*
X110160000Y-113970000D02*
X108636000Y-117018000D01*
X89840000Y-113970000D02*
X91364000Y-117018000D01*
X91364000Y-117018000D02*
X108636000Y-117018000D01*
X110160000Y-80442000D02*
X110160000Y-113970000D01*
X89840000Y-80442000D02*
X89840000Y-113970000D01*
X104013200Y-80442000D02*
X110160000Y-80442000D01*
X95986800Y-80442000D02*
X89840000Y-80442000D01*
X95986800Y-78537000D02*
X95986800Y-80442000D01*
X104013200Y-78537000D02*
X104013200Y-80442000D01*
X95986800Y-78537000D02*
X104013200Y-78537000D01*
X86245112Y-71524904D02*
G75*
G03X86230000Y-68500000I2484888J1524904D01*
G01*
X86230000Y-71500000D02*
X86230000Y-68500000D01*
X91247936Y-70000000D02*
G75*
G03X91247936Y-70000000I-2517936J0D01*
G01*
X106245112Y-71524904D02*
G75*
G03X106230000Y-68500000I2484888J1524904D01*
G01*
X106230000Y-71500000D02*
X106230000Y-68500000D01*
X111247936Y-70000000D02*
G75*
G03X111247936Y-70000000I-2517936J0D01*
G01*
X126895000Y-117835000D02*
X126895000Y-110215000D01*
X124355000Y-117835000D02*
X124355000Y-110215000D01*
X124075000Y-120655000D02*
X124075000Y-119105000D01*
X126895000Y-110215000D02*
X124355000Y-110215000D01*
X124355000Y-117835000D02*
X126895000Y-117835000D01*
X127175000Y-119105000D02*
X127175000Y-120655000D01*
X127175000Y-120655000D02*
X124075000Y-120655000D01*
X74485000Y-101395000D02*
X74485000Y-106475000D01*
X74485000Y-106475000D02*
X77025000Y-106475000D01*
X77025000Y-106475000D02*
X77025000Y-101395000D01*
X77305000Y-98575000D02*
X77305000Y-100125000D01*
X77025000Y-101395000D02*
X74485000Y-101395000D01*
X74205000Y-100125000D02*
X74205000Y-98575000D01*
X74205000Y-98575000D02*
X77305000Y-98575000D01*
X123950000Y-96315000D02*
X123950000Y-94765000D01*
X123950000Y-94765000D02*
X127050000Y-94765000D01*
X127050000Y-94765000D02*
X127050000Y-96315000D01*
X126770000Y-97585000D02*
X126770000Y-107745000D01*
X126770000Y-107745000D02*
X124230000Y-107745000D01*
X124230000Y-107745000D02*
X124230000Y-97585000D01*
X126770000Y-97585000D02*
X124230000Y-97585000D01*
X78163095Y-126352381D02*
X78163095Y-127161905D01*
X78210714Y-127257143D01*
X78258333Y-127304762D01*
X78353571Y-127352381D01*
X78544048Y-127352381D01*
X78639286Y-127304762D01*
X78686905Y-127257143D01*
X78734524Y-127161905D01*
X78734524Y-126352381D01*
X79639286Y-126685714D02*
X79639286Y-127352381D01*
X79401190Y-126304762D02*
X79163095Y-127019048D01*
X79782143Y-127019048D01*
X99238095Y-82942381D02*
X99238095Y-83751905D01*
X99285714Y-83847143D01*
X99333333Y-83894762D01*
X99428571Y-83942381D01*
X99619048Y-83942381D01*
X99714286Y-83894762D01*
X99761905Y-83847143D01*
X99809524Y-83751905D01*
X99809524Y-82942381D01*
X100809524Y-83942381D02*
X100238095Y-83942381D01*
X100523809Y-83942381D02*
X100523809Y-82942381D01*
X100428571Y-83085238D01*
X100333333Y-83180476D01*
X100238095Y-83228095D01*
X97261905Y-86482381D02*
X97261905Y-85482381D01*
X97642858Y-85482381D01*
X97738096Y-85530000D01*
X97785715Y-85577619D01*
X97833334Y-85672857D01*
X97833334Y-85815714D01*
X97785715Y-85910952D01*
X97738096Y-85958571D01*
X97642858Y-86006190D01*
X97261905Y-86006190D01*
X98261905Y-86482381D02*
X98261905Y-85482381D01*
X98261905Y-85958571D02*
X98833334Y-85958571D01*
X98833334Y-86482381D02*
X98833334Y-85482381D01*
X99500000Y-85482381D02*
X99690477Y-85482381D01*
X99785715Y-85530000D01*
X99880953Y-85625238D01*
X99928572Y-85815714D01*
X99928572Y-86149048D01*
X99880953Y-86339524D01*
X99785715Y-86434762D01*
X99690477Y-86482381D01*
X99500000Y-86482381D01*
X99404762Y-86434762D01*
X99309524Y-86339524D01*
X99261905Y-86149048D01*
X99261905Y-85815714D01*
X99309524Y-85625238D01*
X99404762Y-85530000D01*
X99500000Y-85482381D01*
X100214286Y-85482381D02*
X100785715Y-85482381D01*
X100500000Y-86482381D02*
X100500000Y-85482381D01*
X101309524Y-85482381D02*
X101500001Y-85482381D01*
X101595239Y-85530000D01*
X101690477Y-85625238D01*
X101738096Y-85815714D01*
X101738096Y-86149048D01*
X101690477Y-86339524D01*
X101595239Y-86434762D01*
X101500001Y-86482381D01*
X101309524Y-86482381D01*
X101214286Y-86434762D01*
X101119048Y-86339524D01*
X101071429Y-86149048D01*
X101071429Y-85815714D01*
X101119048Y-85625238D01*
X101214286Y-85530000D01*
X101309524Y-85482381D01*
X102166667Y-86482381D02*
X102166667Y-85482381D01*
X102738096Y-86482381D01*
X102738096Y-85482381D01*
X88245905Y-74516381D02*
X88245905Y-73516381D01*
X88484000Y-73516381D01*
X88626858Y-73564000D01*
X88722096Y-73659238D01*
X88769715Y-73754476D01*
X88817334Y-73944952D01*
X88817334Y-74087810D01*
X88769715Y-74278286D01*
X88722096Y-74373524D01*
X88626858Y-74468762D01*
X88484000Y-74516381D01*
X88245905Y-74516381D01*
X89769715Y-74516381D02*
X89198286Y-74516381D01*
X89484000Y-74516381D02*
X89484000Y-73516381D01*
X89388762Y-73659238D01*
X89293524Y-73754476D01*
X89198286Y-73802095D01*
X85293095Y-72357381D02*
X85293095Y-71357381D01*
X85864524Y-72357381D02*
X85435952Y-71785952D01*
X85864524Y-71357381D02*
X85293095Y-71928810D01*
X108245905Y-74516381D02*
X108245905Y-73516381D01*
X108484000Y-73516381D01*
X108626858Y-73564000D01*
X108722096Y-73659238D01*
X108769715Y-73754476D01*
X108817334Y-73944952D01*
X108817334Y-74087810D01*
X108769715Y-74278286D01*
X108722096Y-74373524D01*
X108626858Y-74468762D01*
X108484000Y-74516381D01*
X108245905Y-74516381D01*
X109198286Y-73611619D02*
X109245905Y-73564000D01*
X109341143Y-73516381D01*
X109579239Y-73516381D01*
X109674477Y-73564000D01*
X109722096Y-73611619D01*
X109769715Y-73706857D01*
X109769715Y-73802095D01*
X109722096Y-73944952D01*
X109150667Y-74516381D01*
X109769715Y-74516381D01*
X105293095Y-72357381D02*
X105293095Y-71357381D01*
X105864524Y-72357381D02*
X105435952Y-71785952D01*
X105864524Y-71357381D02*
X105293095Y-71928810D01*
X124863095Y-123657381D02*
X124863095Y-124466905D01*
X124910714Y-124562143D01*
X124958333Y-124609762D01*
X125053571Y-124657381D01*
X125244048Y-124657381D01*
X125339286Y-124609762D01*
X125386905Y-124562143D01*
X125434524Y-124466905D01*
X125434524Y-123657381D01*
X125863095Y-123752619D02*
X125910714Y-123705000D01*
X126005952Y-123657381D01*
X126244048Y-123657381D01*
X126339286Y-123705000D01*
X126386905Y-123752619D01*
X126434524Y-123847857D01*
X126434524Y-123943095D01*
X126386905Y-124085952D01*
X125815476Y-124657381D01*
X126434524Y-124657381D01*
X74993095Y-94477381D02*
X74993095Y-95286905D01*
X75040714Y-95382143D01*
X75088333Y-95429762D01*
X75183571Y-95477381D01*
X75374048Y-95477381D01*
X75469286Y-95429762D01*
X75516905Y-95382143D01*
X75564524Y-95286905D01*
X75564524Y-94477381D01*
X75945476Y-94477381D02*
X76564524Y-94477381D01*
X76231190Y-94858333D01*
X76374048Y-94858333D01*
X76469286Y-94905952D01*
X76516905Y-94953571D01*
X76564524Y-95048810D01*
X76564524Y-95286905D01*
X76516905Y-95382143D01*
X76469286Y-95429762D01*
X76374048Y-95477381D01*
X76088333Y-95477381D01*
X75993095Y-95429762D01*
X75945476Y-95382143D01*
X124738095Y-90667381D02*
X124738095Y-91476905D01*
X124785714Y-91572143D01*
X124833333Y-91619762D01*
X124928571Y-91667381D01*
X125119048Y-91667381D01*
X125214286Y-91619762D01*
X125261905Y-91572143D01*
X125309524Y-91476905D01*
X125309524Y-90667381D01*
X126261905Y-90667381D02*
X125785714Y-90667381D01*
X125738095Y-91143571D01*
X125785714Y-91095952D01*
X125880952Y-91048333D01*
X126119048Y-91048333D01*
X126214286Y-91095952D01*
X126261905Y-91143571D01*
X126309524Y-91238810D01*
X126309524Y-91476905D01*
X126261905Y-91572143D01*
X126214286Y-91619762D01*
X126119048Y-91667381D01*
X125880952Y-91667381D01*
X125785714Y-91619762D01*
X125738095Y-91572143D01*
M02*
