M48
INCH,TZ
T1C0.016
T2C0.039
T3C0.040
T4C0.040
%
G90
G05
T1
X31073Y-41417
X31535Y-34587
X33041Y-46939
X33287Y-44685
X36791Y-27530
X44400Y-38927
X44409Y-35856
X44941Y-36860
X44980Y-27589
X45719Y-41919
T2
X34433Y-27559
X35433Y-27559
X42307Y-27559
X43307Y-27559
T3
X29825Y-39419
X29825Y-40419
X29825Y-41419
X31073Y-44953
X31073Y-45953
X31073Y-46953
X31073Y-47953
X49409Y-37919
X49409Y-38919
X49409Y-39919
X49409Y-40919
X49409Y-41919
X49459Y-43892
X49459Y-44892
X49459Y-45892
X49459Y-46892
T4
X35870Y-33370
X35870Y-34370
X35870Y-35370
X35870Y-36370
X35870Y-37370
X35870Y-38370
X35870Y-39370
X35870Y-40370
X35870Y-41370
X35870Y-42370
X35870Y-43370
X35870Y-44370
X42870Y-33370
X42870Y-34370
X42870Y-35370
X42870Y-36370
X42870Y-37370
X42870Y-38370
X42870Y-39370
X42870Y-40370
X42870Y-41370
X42870Y-42370
X42870Y-43370
X42870Y-44370
T0
M30
